<svg xmlns="http://www.w3.org/2000/svg" viewBox="0 0 760 250" width="760" height="250" font-family="Helvetica, Arial, sans-serif" stroke-linecap="round" stroke-linejoin="round" role="img" aria-label="Flat versus smooth vertex normals">
<title>Flat versus smooth vertex normals</title><defs><marker id="m222222" viewBox="0 0 10 10" refX="8.5" refY="5" markerWidth="7" markerHeight="7" orient="auto-start-reverse"><path d="M0,0 L10,5 L0,10 z" fill="#222222"/></marker><marker id="m6b6b70" viewBox="0 0 10 10" refX="8.5" refY="5" markerWidth="7" markerHeight="7" orient="auto-start-reverse"><path d="M0,0 L10,5 L0,10 z" fill="#6b6b70"/></marker><marker id="m2f6fdd" viewBox="0 0 10 10" refX="8.5" refY="5" markerWidth="7" markerHeight="7" orient="auto-start-reverse"><path d="M0,0 L10,5 L0,10 z" fill="#2f6fdd"/></marker><marker id="md9503f" viewBox="0 0 10 10" refX="8.5" refY="5" markerWidth="7" markerHeight="7" orient="auto-start-reverse"><path d="M0,0 L10,5 L0,10 z" fill="#d9503f"/></marker><marker id="m2e9a4f" viewBox="0 0 10 10" refX="8.5" refY="5" markerWidth="7" markerHeight="7" orient="auto-start-reverse"><path d="M0,0 L10,5 L0,10 z" fill="#2e9a4f"/></marker><marker id="me08a1e" viewBox="0 0 10 10" refX="8.5" refY="5" markerWidth="7" markerHeight="7" orient="auto-start-reverse"><path d="M0,0 L10,5 L0,10 z" fill="#e08a1e"/></marker><marker id="m8a4fc7" viewBox="0 0 10 10" refX="8.5" refY="5" markerWidth="7" markerHeight="7" orient="auto-start-reverse"><path d="M0,0 L10,5 L0,10 z" fill="#8a4fc7"/></marker></defs>
<rect width="760" height="250" fill="#ffffff"/>
<path d="M90.0,190.0 L119.3,119.3 L190.0,90.0 L260.7,119.3 L290.0,190.0" stroke="#222222" stroke-width="2.2" fill="none"/>
<line x1="80.0" y1="190.0" x2="300.0" y2="190.0" stroke="#d8d8d2" stroke-width="1"/>
<line x1="95.9" y1="175.9" x2="60.8" y2="161.3" stroke="#2f6fdd" stroke-width="1.8" marker-end="url(#m2f6fdd)"/>
<line x1="113.4" y1="133.4" x2="78.3" y2="118.9" stroke="#2f6fdd" stroke-width="1.8" marker-end="url(#m2f6fdd)"/>
<line x1="133.4" y1="113.4" x2="118.9" y2="78.3" stroke="#2f6fdd" stroke-width="1.8" marker-end="url(#m2f6fdd)"/>
<line x1="175.9" y1="95.9" x2="161.3" y2="60.8" stroke="#2f6fdd" stroke-width="1.8" marker-end="url(#m2f6fdd)"/>
<line x1="204.1" y1="95.9" x2="218.7" y2="60.8" stroke="#2f6fdd" stroke-width="1.8" marker-end="url(#m2f6fdd)"/>
<line x1="246.6" y1="113.4" x2="261.1" y2="78.3" stroke="#2f6fdd" stroke-width="1.8" marker-end="url(#m2f6fdd)"/>
<line x1="266.6" y1="133.4" x2="301.7" y2="118.9" stroke="#2f6fdd" stroke-width="1.8" marker-end="url(#m2f6fdd)"/>
<line x1="284.1" y1="175.9" x2="319.2" y2="161.3" stroke="#2f6fdd" stroke-width="1.8" marker-end="url(#m2f6fdd)"/>
<circle cx="90.0" cy="190.0" r="3.5" stroke="#222222" fill="#222222" stroke-width="1"/>
<circle cx="119.3" cy="119.3" r="3.5" stroke="#222222" fill="#222222" stroke-width="1"/>
<circle cx="190.0" cy="90.0" r="3.5" stroke="#222222" fill="#222222" stroke-width="1"/>
<circle cx="260.7" cy="119.3" r="3.5" stroke="#222222" fill="#222222" stroke-width="1"/>
<circle cx="290.0" cy="190.0" r="3.5" stroke="#222222" fill="#222222" stroke-width="1"/>
<path d="M470.0,190.0 L499.3,119.3 L570.0,90.0 L640.7,119.3 L670.0,190.0" stroke="#222222" stroke-width="2.2" fill="none"/>
<line x1="460.0" y1="190.0" x2="680.0" y2="190.0" stroke="#d8d8d2" stroke-width="1"/>
<line x1="470.0" y1="190.0" x2="430.0" y2="190.0" stroke="#d9503f" stroke-width="1.8" marker-end="url(#md9503f)"/>
<circle cx="470.0" cy="190.0" r="3.5" stroke="#222222" fill="#222222" stroke-width="1"/>
<line x1="499.3" y1="119.3" x2="471.0" y2="91.0" stroke="#d9503f" stroke-width="1.8" marker-end="url(#md9503f)"/>
<circle cx="499.3" cy="119.3" r="3.5" stroke="#222222" fill="#222222" stroke-width="1"/>
<line x1="570.0" y1="90.0" x2="570.0" y2="50.0" stroke="#d9503f" stroke-width="1.8" marker-end="url(#md9503f)"/>
<circle cx="570.0" cy="90.0" r="3.5" stroke="#222222" fill="#222222" stroke-width="1"/>
<line x1="640.7" y1="119.3" x2="669.0" y2="91.0" stroke="#d9503f" stroke-width="1.8" marker-end="url(#md9503f)"/>
<circle cx="640.7" cy="119.3" r="3.5" stroke="#222222" fill="#222222" stroke-width="1"/>
<line x1="670.0" y1="190.0" x2="710.0" y2="190.0" stroke="#d9503f" stroke-width="1.8" marker-end="url(#md9503f)"/>
<circle cx="670.0" cy="190.0" r="3.5" stroke="#222222" fill="#222222" stroke-width="1"/>
<text x="190.0" y="224.0" fill="#2f6fdd" font-size="14" text-anchor="middle">flat: one normal per face</text>
<text x="190.0" y="242.0" fill="#6b6b70" font-size="12" text-anchor="middle">corners are duplicated, one copy per face</text>
<text x="570.0" y="224.0" fill="#d9503f" font-size="14" text-anchor="middle">smooth: one normal per vertex</text>
<text x="570.0" y="242.0" fill="#6b6b70" font-size="12" text-anchor="middle">vertices shared; normal from the true surface</text>
</svg>
